{"asset":{"version":"2.0","generator":"VECTARY"},"nodes":[{"translation":[26.096634660194432,0.0809124755859375,-0.011878967285148938],"scale":[0.5,0.5,0.11559709100000001],"rotation":[0,0.7071067811865475,0,0.7071067811865476],"name":"svgg","children":[1,2,3,4,5]},{"translation":[0,0,0],"scale":[1,1,1],"rotation":[0,0,0,1],"name":"Path","mesh":0},{"translation":[0,0,1],"scale":[1,1,1],"rotation":[0,0,0,1],"name":"Path","mesh":1},{"translation":[0,0,2],"scale":[1,1,1],"rotation":[0,0,0,1],"name":"Path","mesh":2},{"translation":[0,0,3],"scale":[1,1,1],"rotation":[0,0,0,1],"name":"Path","mesh":3},{"translation":[0,0,4],"scale":[1,1,1],"rotation":[0,0,0,1],"name":"Path","mesh":4}],"materials":[{"pbrMetallicRoughness":{"baseColorFactor":[0.9743002023888613,0.9743002023888613,0.9743002023888613,1],"metallicFactor":0,"roughnessFactor":1},"name":"Melanie","emissiveFactor":[0,0,0],"extensions":{},"alphaMode":"OPAQUE","doubleSided":true},{"pbrMetallicRoughness":{"baseColorFactor":[0.08690125178766034,0.08690125178766034,0.08690125178766034,1],"metallicFactor":0,"roughnessFactor":1},"name":"Charming Nature","emissiveFactor":[0,0,0],"extensions":{},"alphaMode":"OPAQUE","doubleSided":true},{"pbrMetallicRoughness":{"baseColorFactor":[0.907547199521614,0.907547199521614,0.907547199521614,1],"metallicFactor":0,"roughnessFactor":1},"name":"Country Breeze","emissiveFactor":[0,0,0],"extensions":{},"alphaMode":"OPAQUE","doubleSided":true},{"pbrMetallicRoughness":{"baseColorFactor":[0.8433697303921693,0.8433697303921693,0.8433697303921693,1],"metallicFactor":0,"roughnessFactor":1},"name":"Jackpot","emissiveFactor":[0,0,0],"extensions":{},"alphaMode":"OPAQUE","doubleSided":true},{"pbrMetallicRoughness":{"baseColorFactor":[0.267358060183772,0.267358060183772,0.267358060183772,1],"metallicFactor":0,"roughnessFactor":1},"name":"Royal Vibe","emissiveFactor":[0,0,0],"extensions":{},"alphaMode":"OPAQUE","doubleSided":true}],"meshes":[{"primitives":[{"mode":4,"attributes":{"POSITION":1,"NORMAL":2,"TEXCOORD_0":3},"material":0,"indices":0}]},{"primitives":[{"mode":4,"attributes":{"POSITION":5,"NORMAL":6,"TEXCOORD_0":7},"material":1,"indices":4}]},{"primitives":[{"mode":4,"attributes":{"POSITION":9,"NORMAL":10,"TEXCOORD_0":11},"material":2,"indices":8}]},{"primitives":[{"mode":4,"attributes":{"POSITION":13,"NORMAL":14,"TEXCOORD_0":15},"material":3,"indices":12}]},{"primitives":[{"mode":4,"attributes":{"POSITION":17,"NORMAL":18,"TEXCOORD_0":19},"material":4,"indices":16}]}],"accessors":[{"bufferView":0,"byteOffset":0,"componentType":5125,"count":134196,"type":"SCALAR"},{"bufferView":1,"byteOffset":0,"componentType":5126,"count":44951,"max":[131.0082550048828,130.57025146484375,0],"min":[-131.0082550048828,-130.57025146484375,0],"type":"VEC3"},{"bufferView":2,"byteOffset":0,"componentType":5126,"count":44951,"type":"VEC3"},{"bufferView":3,"byteOffset":0,"componentType":5126,"count":44951,"type":"VEC2"},{"bufferView":4,"byteOffset":0,"componentType":5125,"count":12105,"type":"SCALAR"},{"bufferView":5,"byteOffset":0,"componentType":5126,"count":4137,"max":[62.19822692871094,72.1612548828125,4.470348358154297e-8],"min":[-62.66975402832031,-61.14549255371094,4.470348358154297e-8],"type":"VEC3"},{"bufferView":6,"byteOffset":0,"componentType":5126,"count":4137,"type":"VEC3"},{"bufferView":7,"byteOffset":0,"componentType":5126,"count":4137,"type":"VEC2"},{"bufferView":8,"byteOffset":0,"componentType":5125,"count":43266,"type":"SCALAR"},{"bufferView":9,"byteOffset":0,"componentType":5126,"count":14756,"max":[68.84645080566406,71.42125701904297,4.470348358154297e-8],"min":[-63.67375183105469,-26.296417236328125,4.470348358154297e-8],"type":"VEC3"},{"bufferView":10,"byteOffset":0,"componentType":5126,"count":14756,"type":"VEC3"},{"bufferView":11,"byteOffset":0,"componentType":5126,"count":14756,"type":"VEC2"},{"bufferView":12,"byteOffset":0,"componentType":5125,"count":11694,"type":"SCALAR"},{"bufferView":13,"byteOffset":0,"componentType":5126,"count":4016,"max":[68.54725646972656,71.95025634765625,4.470348358154297e-8],"min":[-69.22975158691406,-61.35749816894531,4.470348358154297e-8],"type":"VEC3"},{"bufferView":14,"byteOffset":0,"componentType":5126,"count":4016,"type":"VEC3"},{"bufferView":15,"byteOffset":0,"componentType":5126,"count":4016,"type":"VEC2"},{"bufferView":16,"byteOffset":0,"componentType":5125,"count":24030,"type":"SCALAR"},{"bufferView":17,"byteOffset":0,"componentType":5126,"count":8226,"max":[62.17512512207031,72.3442611694336,-1.9371509552001953e-7],"min":[-62.8277587890625,-61.35899353027344,-1.9371509552001953e-7],"type":"VEC3"},{"bufferView":18,"byteOffset":0,"componentType":5126,"count":8226,"type":"VEC3"},{"bufferView":19,"byteOffset":0,"componentType":5126,"count":8226,"type":"VEC2"}],"bufferViews":[{"buffer":0,"byteOffset":0,"byteLength":536784,"target":34963},{"buffer":0,"byteOffset":536784,"byteLength":539412,"target":34962},{"buffer":0,"byteOffset":1076196,"byteLength":539412,"target":34962},{"buffer":0,"byteOffset":1615608,"byteLength":359608,"target":34962},{"buffer":0,"byteOffset":1975216,"byteLength":48420,"target":34963},{"buffer":0,"byteOffset":2023636,"byteLength":49644,"target":34962},{"buffer":0,"byteOffset":2073280,"byteLength":49644,"target":34962},{"buffer":0,"byteOffset":2122924,"byteLength":33096,"target":34962},{"buffer":0,"byteOffset":2156020,"byteLength":173064,"target":34963},{"buffer":0,"byteOffset":2329084,"byteLength":177072,"target":34962},{"buffer":0,"byteOffset":2506156,"byteLength":177072,"target":34962},{"buffer":0,"byteOffset":2683228,"byteLength":118048,"target":34962},{"buffer":0,"byteOffset":2801276,"byteLength":46776,"target":34963},{"buffer":0,"byteOffset":2848052,"byteLength":48192,"target":34962},{"buffer":0,"byteOffset":2896244,"byteLength":48192,"target":34962},{"buffer":0,"byteOffset":2944436,"byteLength":32128,"target":34962},{"buffer":0,"byteOffset":2976564,"byteLength":96120,"target":34963},{"buffer":0,"byteOffset":3072684,"byteLength":98712,"target":34962},{"buffer":0,"byteOffset":3171396,"byteLength":98712,"target":34962},{"buffer":0,"byteOffset":3270108,"byteLength":65808,"target":34962}],"scene":0,"scenes":[{"nodes":[0],"name":"Logo"}],"extensionsUsed":["KHR_texture_transform"],"buffers":[{"byteLength":3335916,"uri":"Logo.bin"}]}